# xmcd CD database file generated by Grip 2.96
# 
# Track frame offsets:
#       150
#       19568
#       36704
#       70391
#       90991
#       114856
#       140933
#       161546
#       178135
#       191599
# 
# Disc length: 2739 seconds
# 
# Revision: 0
# Processed by: cddbd v1.4PL0 Copyright (c) Steve Scherf et al.
# Submitted via: Grip 2.96
# 
DISCID=890ab10a
DTITLE=Chucky C - Clearly Blues
DYEAR=1900
DGENRE=
TTITLE0=See See Baby
TTITLE1=Howlin For My Darlin
TTITLE2=Stormy Monday
TTITLE3=Driving Wheel
TTITLE4=Pledging My Love
TTITLE5=Down Home Blues
TTITLE6=Cleo's Back
TTITLE7=Crying For My Baby
TTITLE8=I Don't Believe
TTITLE9=Teenie Weenie Bit
EXTD=
EXTT0=
EXTT1=
EXTT2=
EXTT3=
EXTT4=
EXTT5=
EXTT6=
EXTT7=
EXTT8=
EXTT9=
PLAYORDER=
